<?xml version="1.0" standalone="no"?>
<!DOCTYPE svg PUBLIC "-//W3C//DTD SVG 20010904//EN"
 "http://www.w3.org/TR/2001/REC-SVG-20010904/DTD/svg10.dtd">
<svg version="1.0" xmlns="http://www.w3.org/2000/svg"
 width="1000.000000pt" height="1000.000000pt" viewBox="0 0 1000.000000 1000.000000"
 preserveAspectRatio="xMidYMid meet">
<metadata>
Created by potrace 1.11, written by Peter Selinger 2001-2013
</metadata>
<g transform="translate(0.000000,1000.000000) scale(0.100000,-0.100000)"
fill="#000000" stroke="none">
<path d="M4341 8255 c-36 -8 -88 -26 -115 -40 -28 -14 -276 -187 -551 -386
-275 -198 -511 -368 -524 -377 -13 -9 -35 -26 -50 -37 -14 -12 -37 -28 -51
-37 -14 -9 -65 -46 -115 -83 -49 -36 -126 -91 -170 -122 -44 -31 -84 -61 -90
-65 -10 -9 -235 -171 -275 -198 -12 -8 -56 -40 -98 -71 -43 -31 -176 -127
-297 -214 -298 -214 -448 -323 -460 -332 -5 -5 -120 -87 -254 -183 -134 -96
-321 -230 -415 -298 -94 -68 -247 -178 -341 -245 -243 -174 -297 -233 -326
-354 -62 -261 152 -503 446 -503 105 -1 156 11 240 53 32 16 443 306 660 467
28 20 116 85 198 143 l147 107 1 -33 c0 -17 1 -815 2 -1772 l2 -1740 22 -48
c40 -85 127 -152 231 -175 22 -5 377 -9 788 -9 l749 0 -3 718 c-1 436 1 727 7
742 5 14 26 38 47 53 l37 29 661 0 c646 0 662 -1 696 -20 72 -42 69 -5 67
-805 l-2 -718 596 1 596 0 -13 50 c-20 76 -12 182 18 249 53 116 126 168 346
251 52 20 97 38 100 42 4 4 -4 16 -18 27 -14 11 -54 45 -90 76 -35 32 -87 77
-115 101 -104 91 -205 198 -240 256 -185 308 -26 741 346 940 l59 31 -87 59
c-49 32 -126 84 -173 114 -166 110 -253 202 -313 333 -26 55 -40 145 -34 218
7 84 10 98 44 172 29 67 55 107 169 259 39 53 74 108 78 123 9 37 -17 77 -91
141 -106 92 -209 199 -245 255 -97 155 -153 303 -173 466 -4 27 -9 60 -11 74
-7 35 -6 277 1 347 21 205 106 567 165 698 5 11 21 49 34 84 86 217 237 326
521 376 103 19 148 26 195 31 30 4 62 8 70 10 8 1 26 3 39 3 l23 1 -4 128 c-5
139 -13 164 -70 219 -18 18 -55 42 -81 53 -46 21 -64 22 -371 22 l-323 1 -57
-26 c-62 -29 -98 -63 -128 -120 -17 -34 -19 -61 -20 -247 l-1 -208 -27 16
c-15 10 -47 32 -71 50 -24 18 -253 184 -509 368 -256 184 -472 340 -480 347
-47 37 -171 117 -205 132 -95 41 -214 52 -314 30z"/>
<path d="M7220 7287 c-3 -3 -45 -7 -95 -11 -49 -3 -101 -8 -114 -11 -13 -2
-49 -7 -80 -11 -31 -3 -58 -8 -61 -9 -3 -2 -25 -6 -48 -10 -73 -11 -188 -43
-229 -64 -65 -33 -108 -89 -164 -216 -47 -105 -139 -446 -153 -565 -3 -25 -9
-72 -13 -105 -14 -117 -8 -324 12 -430 33 -169 104 -319 197 -415 19 -19 78
-74 130 -122 212 -193 233 -308 96 -511 -23 -34 -50 -71 -61 -82 -31 -34 -106
-150 -128 -201 -29 -65 -29 -154 1 -218 49 -102 159 -189 571 -452 68 -43 93
-83 86 -140 -7 -69 -47 -110 -158 -167 -52 -26 -114 -59 -139 -74 -51 -31
-170 -149 -170 -169 0 -8 -4 -14 -9 -14 -12 0 -58 -113 -71 -171 -5 -25 -8
-74 -5 -108 8 -124 60 -192 335 -431 79 -69 148 -129 154 -135 7 -5 45 -39 86
-75 41 -36 80 -72 87 -80 17 -21 16 -51 -3 -78 -18 -26 -53 -43 -261 -123
-214 -82 -275 -110 -297 -134 -58 -64 -47 -177 26 -252 48 -50 119 -75 213
-76 73 -1 141 5 205 18 14 3 43 7 65 10 51 7 197 41 250 59 173 59 304 164
365 291 50 106 55 211 19 395 -14 70 -41 123 -91 180 -73 82 -88 135 -57 198
28 55 84 84 274 140 228 67 285 83 315 88 47 8 165 46 203 65 163 84 234 256
238 581 1 54 -4 112 -12 138 -18 60 -76 114 -179 169 -169 90 -212 167 -155
278 47 93 238 189 432 218 21 3 50 7 63 10 13 3 40 7 60 10 317 47 468 152
611 422 36 67 101 228 120 293 7 25 14 50 16 55 11 36 53 206 57 235 3 19 8
49 11 65 27 165 34 341 22 540 -6 107 -10 137 -24 200 -9 39 -8 35 -22 69 -21
51 -71 105 -180 192 -328 263 -730 473 -1141 596 -84 25 -237 65 -275 71 -16
3 -66 12 -110 20 -44 9 -118 20 -165 26 -47 6 -103 13 -125 16 -49 7 -519 18
-525 12z"/>
</g>
</svg>
